<svg width="24" height="24" viewBox="0 0 24 24" fill="none" xmlns="http://www.w3.org/2000/svg">
<path d="M21.971 18.33C21.971 18.69 21.891 19.06 21.721 19.42C21.551 19.78 21.331 20.12 21.041 20.44C20.551 20.98 20.011 21.37 19.401 21.62C18.801 21.87 18.151 22 17.451 22C16.431 22 15.341 21.76 14.191 21.27C13.041 20.78 11.891 20.12 10.751 19.29C9.60098 18.45 8.51098 17.52 7.47098 16.49C6.44098 15.45 5.51098 14.36 4.68098 13.22C3.86098 12.08 3.20098 10.94 2.72098 9.81C2.24098 8.67 2.00098 7.58 2.00098 6.54C2.00098 5.86 2.12098 5.21 2.36098 4.61C2.60098 4 2.98098 3.44 3.51098 2.94C4.15098 2.31 4.85098 2 5.59098 2C5.87098 2 6.15098 2.06 6.40098 2.18C6.66098 2.3 6.89098 2.48 7.07098 2.74L9.39098 6.01C9.57098 6.26 9.70098 6.49 9.79098 6.71C9.88098 6.92 9.93098 7.13 9.93098 7.32C9.93098 7.56 9.86098 7.8 9.72098 8.03C9.59098 8.26 9.40098 8.5 9.16098 8.74L8.40098 9.53C8.29098 9.64 8.24098 9.77 8.24098 9.93C8.24098 10.01 8.25098 10.08 8.27098 10.16C8.30098 10.24 8.33098 10.3 8.35098 10.36C8.53098 10.69 8.84098 11.12 9.28098 11.64C9.73098 12.16 10.211 12.69 10.731 13.22C11.271 13.75 11.791 14.24 12.321 14.69C12.841 15.13 13.271 15.43 13.611 15.61C13.661 15.63 13.721 15.66 13.791 15.69C13.871 15.72 13.951 15.73 14.041 15.73C14.211 15.73 14.341 15.67 14.451 15.56L15.211 14.81C15.461 14.56 15.701 14.37 15.931 14.25C16.161 14.11 16.391 14.04 16.641 14.04C16.831 14.04 17.031 14.08 17.251 14.17C17.471 14.26 17.701 14.39 17.951 14.56L21.261 16.91C21.521 17.09 21.701 17.3 21.811 17.55C21.911 17.8 21.971 18.05 21.971 18.33Z" fill="white"/>
</svg>
