<svg width="40" height="41" viewBox="0 0 40 41" fill="none" xmlns="http://www.w3.org/2000/svg">
<path d="M35.4167 31.2834L32.6667 31.9334C32.05 32.0834 31.5667 32.55 31.4334 33.1667L30.85 35.6167C30.5334 36.95 28.8334 37.3667 27.95 36.3167L22.9667 30.5834C22.5667 30.1167 22.7834 29.3834 23.3834 29.2334C26.3334 28.5167 28.9834 26.8667 30.9334 24.5167C31.25 24.1334 31.8167 24.0834 32.1667 24.4334L35.8667 28.1334C37.1334 29.4 36.6834 30.9834 35.4167 31.2834Z" fill="#8873EF"/>
<path d="M4.50003 31.2834L7.25003 31.9334C7.86669 32.0834 8.35003 32.55 8.48336 33.1667L9.06669 35.6167C9.38336 36.95 11.0834 37.3667 11.9667 36.3167L16.95 30.5834C17.35 30.1167 17.1334 29.3834 16.5334 29.2334C13.5834 28.5167 10.9334 26.8667 8.98336 24.5167C8.66669 24.1334 8.10003 24.0834 7.75003 24.4334L4.05003 28.1334C2.78336 29.4 3.23336 30.9834 4.50003 31.2834Z" fill="#8873EF"/>
<path d="M20 3.83337C13.55 3.83337 8.33337 9.05004 8.33337 15.5C8.33337 17.9167 9.05004 20.1334 10.2834 21.9834C12.0834 24.65 14.9334 26.5334 18.25 27.0167C18.8167 27.1167 19.4 27.1667 20 27.1667C20.6 27.1667 21.1834 27.1167 21.75 27.0167C25.0667 26.5334 27.9167 24.65 29.7167 21.9834C30.95 20.1334 31.6667 17.9167 31.6667 15.5C31.6667 9.05004 26.45 3.83337 20 3.83337ZM25.1 15.1334L23.7167 16.5167C23.4834 16.75 23.35 17.2 23.4334 17.5334L23.8334 19.25C24.15 20.6 23.4334 21.1334 22.2334 20.4167L20.5667 19.4334C20.2667 19.25 19.7667 19.25 19.4667 19.4334L17.8 20.4167C16.6 21.1167 15.8834 20.6 16.2 19.25L16.6 17.5334C16.6667 17.2167 16.55 16.75 16.3167 16.5167L14.9 15.1334C14.0834 14.3167 14.35 13.5 15.4834 13.3167L17.2667 13.0167C17.5667 12.9667 17.9167 12.7 18.05 12.4334L19.0334 10.4667C19.5667 9.40004 20.4334 9.40004 20.9667 10.4667L21.95 12.4334C22.0834 12.7 22.4334 12.9667 22.75 13.0167L24.5334 13.3167C25.65 13.5 25.9167 14.3167 25.1 15.1334Z" fill="#8873EF"/>
</svg>
